<?xml version="1.0" standalone="no"?>
<!DOCTYPE svg PUBLIC "-//W3C//DTD SVG 20010904//EN"
 "http://www.w3.org/TR/2001/REC-SVG-20010904/DTD/svg10.dtd">
<svg version="1.0" xmlns="http://www.w3.org/2000/svg"
 width="200.000000pt" height="200.000000pt" viewBox="0 0 200.000000 200.000000"
 preserveAspectRatio="xMidYMid meet">
<metadata>
Created by potrace 1.14, written by Peter Selinger 2001-2017
</metadata>
<g transform="translate(0.000000,200.000000) scale(0.100000,-0.100000)"
fill="#000000" stroke="none">
<path d="M800 1886 c-134 -31 -213 -69 -285 -137 -118 -112 -160 -283 -153
-636 3 -194 4 -199 31 -251 23 -45 31 -79 44 -195 l15 -142 77 -103 c137 -185
212 -276 246 -299 32 -22 42 -23 225 -23 183 0 192 1 225 23 34 23 104 108
246 299 l77 103 15 141 c13 117 20 150 43 195 28 53 29 57 32 252 7 354 -35
524 -155 638 -56 53 -141 98 -238 125 -79 22 -365 29 -445 10z m24 -381 c16
-132 30 -241 31 -242 1 -2 35 -8 76 -14 56 -9 91 -9 145 0 l70 12 28 237 c16
130 32 241 36 245 11 12 137 -20 211 -54 l66 -31 7 -90 c3 -50 6 -175 6 -279
0 -163 3 -200 24 -290 l25 -103 -31 -60 c-17 -34 -64 -117 -105 -185 -42 -68
-86 -149 -100 -179 -13 -30 -38 -75 -55 -99 l-30 -45 -22 21 c-21 20 -34 21
-206 21 -173 0 -185 -1 -206 -21 l-23 -21 -40 62 c-23 35 -41 68 -41 75 0 6
-39 77 -86 156 -47 79 -101 174 -119 210 l-34 66 25 102 c21 92 24 125 24 314
0 117 3 242 6 279 l7 66 66 31 c67 31 173 61 201 58 12 -2 21 -52 44 -242z
m-57 -1224 c2 -3 16 8 31 22 l28 27 174 0 174 0 29 -27 c24 -23 30 -26 37 -13
5 8 20 30 34 49 l25 34 6 -26 c5 -19 -1 -40 -24 -79 -50 -86 -43 -82 -87 -63
-56 24 -332 24 -388 0 -21 -9 -39 -15 -41 -13 -19 20 -75 128 -75 144 0 37 12
34 43 -9 16 -23 32 -44 34 -46z"/>
<path d="M555 994 c-6 -40 -3 -47 31 -88 36 -43 40 -45 128 -61 50 -9 96 -18
103 -20 11 -4 60 62 51 70 -3 4 -115 56 -244 115 l-62 28 -7 -44z"/>
<path d="M1285 968 c-82 -38 -152 -71 -154 -73 -2 -2 6 -19 18 -38 l21 -34
102 19 c99 19 104 21 140 61 37 42 41 58 29 109 l-6 27 -150 -71z"/>
</g>
</svg>
