<?xml version="1.0" encoding="UTF-8" standalone="no"?>
<!DOCTYPE svg PUBLIC "-//W3C//DTD SVG 1.1//EN" "http://www.w3.org/Graphics/SVG/1.1/DTD/svg11.dtd">
<svg width="100%" height="100%" viewBox="0 0 15 15" version="1.1" xmlns="http://www.w3.org/2000/svg" xmlns:xlink="http://www.w3.org/1999/xlink" xml:space="preserve" xmlns:serif="http://www.serif.com/" style="fill-rule:evenodd;clip-rule:evenodd;">
    <path d="M2.5,9.662C2.5,8.904 2.724,8.164 3.145,7.533L3.71,6.686C4.231,5.903 4.595,5.025 4.779,4.103L5.108,2.461C5.336,1.321 6.337,0.5 7.5,0.5C8.663,0.5 9.664,1.321 9.892,2.461L10.221,4.103C10.405,5.025 10.769,5.903 11.29,6.686L11.855,7.533C12.276,8.164 12.5,8.904 12.5,9.662M5.108,13.299C5.494,13.429 5.908,13.5 6.338,13.5L8.662,13.5C9.092,13.5 9.506,13.429 9.892,13.299M6.5,5.5L4.947,8.606C4.666,9.169 4.666,9.831 4.947,10.394C5.286,11.072 5.979,11.5 6.736,11.5L8.264,11.5C9.021,11.5 9.714,11.072 10.053,10.394C10.334,9.831 10.334,9.169 10.053,8.606L8.5,5.5M6.5,3L6.5,4.5M8.5,3L8.5,4.5M6.606,4.447L5.5,5L6.086,5.586C6.867,6.367 8.133,6.367 8.914,5.586L9.5,5L8.394,4.447C7.831,4.166 7.169,4.166 6.606,4.447ZM0.77,11.326L1.249,10.129C1.4,9.749 1.768,9.5 2.177,9.5L3.341,9.5C3.741,9.5 4.102,9.738 4.26,10.106L5.19,12.278C5.372,12.702 5.24,13.195 4.871,13.472L4.133,14.025C3.762,14.304 3.249,14.291 2.892,13.994L1.058,12.465C0.725,12.188 0.609,11.728 0.77,11.326ZM14.23,11.326L13.752,10.129C13.6,9.749 13.232,9.5 12.823,9.5L11.659,9.5C11.259,9.5 10.898,9.738 10.74,10.106L9.81,12.278C9.628,12.702 9.76,13.195 10.129,13.472L10.867,14.025C11.238,14.304 11.752,14.291 12.108,13.994L13.942,12.465C14.275,12.188 14.391,11.728 14.23,11.326Z" style="fill:none;fill-rule:nonzero;stroke:white;stroke-width:1px;"/>
</svg>
